solid Exported from Blender-2.76 (sub 0)
facet normal 1.000000 -0.000000 0.000000
outer loop
vertex -0.000002 -20.000002 0.000000
vertex 0.000002 30.000002 0.000000
vertex -0.000000 0.000000 9.999999
endloop
endfacet
facet normal 0.000000 -0.447214 0.894427
outer loop
vertex -11.851416 -3.463355 8.268321
vertex -15.000000 0.000001 9.999999
vertex -15.000002 -20.000000 -0.000000
endloop
endfacet
facet normal 0.000000 -0.447213 0.894427
outer loop
vertex -0.000000 0.000000 9.999999
vertex -3.069219 -0.494480 9.752759
vertex -3.069219 -3.463355 8.268322
endloop
endfacet
facet normal -0.000000 -0.447214 0.894427
outer loop
vertex -3.069219 -3.463355 8.268322
vertex -11.851416 -3.463355 8.268321
vertex -15.000002 -20.000000 -0.000000
endloop
endfacet
facet normal -0.000000 -0.447214 0.894427
outer loop
vertex -15.000002 -20.000000 -0.000000
vertex -0.000002 -20.000002 0.000000
vertex -0.000000 0.000000 9.999999
endloop
endfacet
facet normal 0.000001 -0.447214 0.894427
outer loop
vertex -15.000002 -20.000000 -0.000000
vertex -0.000000 0.000000 9.999999
vertex -3.069219 -3.463355 8.268322
endloop
endfacet
facet normal -0.000001 -0.447213 0.894427
outer loop
vertex -15.000000 0.000001 9.999999
vertex -11.851416 -3.463355 8.268321
vertex -11.851416 -0.494480 9.752758
endloop
endfacet
facet normal -0.000000 -0.447213 0.894427
outer loop
vertex -11.851416 -0.494480 9.752758
vertex -3.069219 -0.494480 9.752759
vertex -0.000000 0.000000 9.999999
endloop
endfacet
facet normal -0.000000 -0.447214 0.894427
outer loop
vertex -11.851416 -0.494480 9.752758
vertex -0.000000 0.000000 9.999999
vertex -15.000000 0.000001 9.999999
endloop
endfacet
facet normal 0.000000 -0.000000 -1.000000
outer loop
vertex 0.000002 30.000002 0.000000
vertex -0.000002 -20.000002 0.000000
vertex -15.000002 -20.000000 -0.000000
endloop
endfacet
facet normal 0.000000 -0.000000 -1.000000
outer loop
vertex -15.000002 -20.000000 -0.000000
vertex -14.999998 30.000004 -0.000000
vertex 0.000002 30.000002 0.000000
endloop
endfacet
facet normal 0.000000 0.316228 0.948683
outer loop
vertex -0.000000 0.000000 9.999999
vertex 0.000002 30.000002 0.000000
vertex -14.999998 30.000004 -0.000000
endloop
endfacet
facet normal 0.000000 0.316228 0.948683
outer loop
vertex -14.999998 30.000004 -0.000000
vertex -15.000000 0.000001 9.999999
vertex -0.000000 0.000000 9.999999
endloop
endfacet
facet normal -1.000000 0.000000 0.000000
outer loop
vertex -15.000000 0.000001 9.999999
vertex -14.999998 30.000004 -0.000000
vertex -15.000002 -20.000000 -0.000000
endloop
endfacet
facet normal 1.000000 0.000000 0.000000
outer loop
vertex -11.851416 -0.494480 9.752758
vertex -11.851416 -3.463355 8.268321
vertex -11.851416 -5.397530 2.747030
endloop
endfacet
facet normal 1.000000 0.000000 0.000000
outer loop
vertex -11.851416 -5.397530 2.747030
vertex -11.851416 -3.225600 1.956512
vertex -11.851416 -0.494480 9.752758
endloop
endfacet
facet normal 0.000000 -0.943766 0.330613
outer loop
vertex -3.069219 -0.494480 9.752759
vertex -11.851416 -0.494480 9.752758
vertex -11.851416 -3.225600 1.956512
endloop
endfacet
facet normal 0.000000 -0.943766 0.330613
outer loop
vertex -11.851416 -3.225600 1.956512
vertex -3.069219 -3.225600 1.956512
vertex -3.069219 -0.494480 9.752759
endloop
endfacet
facet normal 0.000000 0.342020 0.939693
outer loop
vertex -11.851416 -5.397530 2.747030
vertex -3.069219 -5.397530 2.747030
vertex -3.069219 -3.225600 1.956512
endloop
endfacet
facet normal 0.000000 0.342020 0.939693
outer loop
vertex -3.069219 -3.225600 1.956512
vertex -11.851416 -3.225600 1.956512
vertex -11.851416 -5.397530 2.747030
endloop
endfacet
facet normal 0.000000 0.943766 -0.330613
outer loop
vertex -11.851416 -3.463355 8.268321
vertex -3.069219 -3.463355 8.268322
vertex -3.069219 -5.397530 2.747030
endloop
endfacet
facet normal 0.000000 0.943766 -0.330613
outer loop
vertex -3.069219 -5.397530 2.747030
vertex -11.851416 -5.397530 2.747030
vertex -11.851416 -3.463355 8.268321
endloop
endfacet
facet normal -1.000000 0.000000 0.000000
outer loop
vertex -3.069219 -3.463355 8.268322
vertex -3.069219 -0.494480 9.752759
vertex -3.069219 -3.225600 1.956512
endloop
endfacet
facet normal -1.000000 0.000000 0.000000
outer loop
vertex -3.069219 -3.225600 1.956512
vertex -3.069219 -5.397530 2.747030
vertex -3.069219 -3.463355 8.268322
endloop
endfacet
endsolid Exported from Blender-2.76 (sub 0)
